<mxfile host="app.diagrams.net" agent="Mozilla/5.0 (Macintosh; Intel Mac OS X 10_15_7) AppleWebKit/537.36 (KHTML, like Gecko) Chrome/137.0.0.0 Safari/537.36" version="27.1.1">
  <diagram name="Page-1" id="8psTu5joOEkHxSPbt8DS">
    <mxGraphModel dx="1455" dy="902" grid="1" gridSize="10" guides="1" tooltips="1" connect="1" arrows="1" fold="1" page="1" pageScale="1" pageWidth="827" pageHeight="1169" math="0" shadow="0">
      <root>
        <mxCell id="0" />
        <mxCell id="1" parent="0" />
        <mxCell id="pzHLP5PFSMqDfCKK6MuQ-40" value="&lt;span style=&quot;text-wrap-mode: wrap;&quot;&gt;[10:0]width&lt;/span&gt;" style="text;html=1;align=center;verticalAlign=middle;resizable=0;points=[];autosize=1;strokeColor=none;fillColor=none;" parent="1" vertex="1">
          <mxGeometry x="751" y="704.74" width="80" height="30" as="geometry" />
        </mxCell>
        <mxCell id="pzHLP5PFSMqDfCKK6MuQ-41" value="&lt;span style=&quot;text-wrap-mode: wrap;&quot;&gt;[9:0]height&lt;/span&gt;" style="text;html=1;align=center;verticalAlign=middle;resizable=0;points=[];autosize=1;strokeColor=none;fillColor=none;" parent="1" vertex="1">
          <mxGeometry x="750.9999999999998" y="738.82" width="80" height="30" as="geometry" />
        </mxCell>
        <mxCell id="pzHLP5PFSMqDfCKK6MuQ-47" value="" style="edgeStyle=orthogonalEdgeStyle;rounded=0;orthogonalLoop=1;jettySize=auto;html=1;strokeWidth=3;" parent="1" edge="1">
          <mxGeometry relative="1" as="geometry">
            <mxPoint x="2700" y="749.9899999999999" as="targetPoint" />
            <mxPoint x="2538" y="749.9399999999999" as="sourcePoint" />
            <Array as="points">
              <mxPoint x="2587" y="749.9399999999995" />
            </Array>
          </mxGeometry>
        </mxCell>
        <mxCell id="pzHLP5PFSMqDfCKK6MuQ-48" value="&lt;span style=&quot;text-wrap-mode: wrap;&quot;&gt;bbox_valid&lt;/span&gt;" style="text;html=1;align=center;verticalAlign=middle;resizable=0;points=[];autosize=1;strokeColor=none;fillColor=none;" parent="1" vertex="1">
          <mxGeometry x="2586" y="721.1899999999999" width="80" height="30" as="geometry" />
        </mxCell>
        <mxCell id="pzHLP5PFSMqDfCKK6MuQ-49" value="" style="edgeStyle=orthogonalEdgeStyle;rounded=0;orthogonalLoop=1;jettySize=auto;html=1;strokeWidth=3;" parent="1" edge="1">
          <mxGeometry relative="1" as="geometry">
            <mxPoint x="2700" y="780.6199999999999" as="targetPoint" />
            <mxPoint x="2538" y="780.5699999999999" as="sourcePoint" />
            <Array as="points">
              <mxPoint x="2587" y="780.5699999999995" />
            </Array>
          </mxGeometry>
        </mxCell>
        <mxCell id="pzHLP5PFSMqDfCKK6MuQ-50" value="&lt;span style=&quot;text-wrap-mode: wrap;&quot;&gt;[7:0]bbox_label&lt;/span&gt;" style="text;html=1;align=center;verticalAlign=middle;resizable=0;points=[];autosize=1;strokeColor=none;fillColor=none;" parent="1" vertex="1">
          <mxGeometry x="2560" y="750.5699999999999" width="100" height="30" as="geometry" />
        </mxCell>
        <mxCell id="pzHLP5PFSMqDfCKK6MuQ-51" value="" style="edgeStyle=orthogonalEdgeStyle;rounded=0;orthogonalLoop=1;jettySize=auto;html=1;strokeWidth=3;" parent="1" edge="1">
          <mxGeometry relative="1" as="geometry">
            <mxPoint x="2703" y="598.47" as="targetPoint" />
            <mxPoint x="2541" y="598.4200000000001" as="sourcePoint" />
            <Array as="points">
              <mxPoint x="2590" y="598.4199999999996" />
            </Array>
          </mxGeometry>
        </mxCell>
        <mxCell id="pzHLP5PFSMqDfCKK6MuQ-52" value="&lt;span style=&quot;text-wrap-mode: wrap;&quot;&gt;[10:0]bbox_min_x&lt;/span&gt;" style="text;html=1;align=center;verticalAlign=middle;resizable=0;points=[];autosize=1;strokeColor=none;fillColor=none;" parent="1" vertex="1">
          <mxGeometry x="2565" y="571.7500000000001" width="120" height="30" as="geometry" />
        </mxCell>
        <mxCell id="pzHLP5PFSMqDfCKK6MuQ-53" value="" style="edgeStyle=orthogonalEdgeStyle;rounded=0;orthogonalLoop=1;jettySize=auto;html=1;strokeWidth=3;" parent="1" edge="1">
          <mxGeometry relative="1" as="geometry">
            <mxPoint x="2702" y="637.69" as="targetPoint" />
            <mxPoint x="2540" y="637.6400000000001" as="sourcePoint" />
            <Array as="points">
              <mxPoint x="2589" y="637.6399999999996" />
            </Array>
          </mxGeometry>
        </mxCell>
        <mxCell id="pzHLP5PFSMqDfCKK6MuQ-54" value="&lt;span style=&quot;text-wrap-mode: wrap;&quot;&gt;[9:0]bbox_min_y&lt;/span&gt;" style="text;html=1;align=center;verticalAlign=middle;resizable=0;points=[];autosize=1;strokeColor=none;fillColor=none;" parent="1" vertex="1">
          <mxGeometry x="2570" y="608.2700000000001" width="110" height="30" as="geometry" />
        </mxCell>
        <mxCell id="pzHLP5PFSMqDfCKK6MuQ-56" value="" style="edgeStyle=orthogonalEdgeStyle;rounded=0;orthogonalLoop=1;jettySize=auto;html=1;strokeWidth=3;" parent="1" edge="1">
          <mxGeometry relative="1" as="geometry">
            <mxPoint x="2700" y="676.8" as="targetPoint" />
            <mxPoint x="2538" y="676.75" as="sourcePoint" />
            <Array as="points">
              <mxPoint x="2587" y="676.7499999999995" />
            </Array>
          </mxGeometry>
        </mxCell>
        <mxCell id="pzHLP5PFSMqDfCKK6MuQ-57" value="&lt;span style=&quot;text-wrap-mode: wrap;&quot;&gt;[10:0]bbox_max_x&lt;/span&gt;" style="text;html=1;align=center;verticalAlign=middle;resizable=0;points=[];autosize=1;strokeColor=none;fillColor=none;" parent="1" vertex="1">
          <mxGeometry x="2565" y="646.75" width="120" height="30" as="geometry" />
        </mxCell>
        <mxCell id="pzHLP5PFSMqDfCKK6MuQ-58" value="" style="edgeStyle=orthogonalEdgeStyle;rounded=0;orthogonalLoop=1;jettySize=auto;html=1;strokeWidth=3;" parent="1" edge="1">
          <mxGeometry relative="1" as="geometry">
            <mxPoint x="2700" y="716.6799999999998" as="targetPoint" />
            <mxPoint x="2538" y="716.6299999999999" as="sourcePoint" />
            <Array as="points">
              <mxPoint x="2587" y="716.6299999999994" />
            </Array>
          </mxGeometry>
        </mxCell>
        <mxCell id="pzHLP5PFSMqDfCKK6MuQ-59" value="&lt;span style=&quot;text-wrap-mode: wrap;&quot;&gt;[9:0]bbox_max_y&lt;/span&gt;" style="text;html=1;align=center;verticalAlign=middle;resizable=0;points=[];autosize=1;strokeColor=none;fillColor=none;" parent="1" vertex="1">
          <mxGeometry x="2571" y="686.6299999999999" width="110" height="30" as="geometry" />
        </mxCell>
        <mxCell id="EjdUyEd99-lyi4bKZ8Xp-1" value="&lt;span style=&quot;font-size: 24px;&quot;&gt;Labler&lt;/span&gt;" style="rounded=0;whiteSpace=wrap;html=1;" parent="1" vertex="1">
          <mxGeometry x="1025" y="350" width="360" height="290" as="geometry" />
        </mxCell>
        <mxCell id="EjdUyEd99-lyi4bKZ8Xp-2" value="" style="edgeStyle=orthogonalEdgeStyle;rounded=0;orthogonalLoop=1;jettySize=auto;html=1;strokeWidth=3;" parent="1" edge="1">
          <mxGeometry relative="1" as="geometry">
            <mxPoint x="2227" y="719" as="targetPoint" />
            <mxPoint x="1225" y="719.5400000000001" as="sourcePoint" />
            <Array as="points">
              <mxPoint x="1274" y="719.5399999999996" />
            </Array>
          </mxGeometry>
        </mxCell>
        <mxCell id="EjdUyEd99-lyi4bKZ8Xp-3" value="motion_detected" style="text;html=1;align=center;verticalAlign=middle;resizable=0;points=[];autosize=1;strokeColor=none;fillColor=none;" parent="1" vertex="1">
          <mxGeometry x="751" y="440" width="110" height="30" as="geometry" />
        </mxCell>
        <mxCell id="EjdUyEd99-lyi4bKZ8Xp-5" value="[7:0]left_label" style="text;html=1;align=center;verticalAlign=middle;resizable=0;points=[];autosize=1;strokeColor=none;fillColor=none;" parent="1" vertex="1">
          <mxGeometry x="1180" y="660" width="90" height="30" as="geometry" />
        </mxCell>
        <mxCell id="EjdUyEd99-lyi4bKZ8Xp-6" value="" style="edgeStyle=orthogonalEdgeStyle;rounded=0;orthogonalLoop=1;jettySize=auto;html=1;strokeWidth=3;" parent="1" edge="1">
          <mxGeometry relative="1" as="geometry">
            <mxPoint x="1025" y="467.06000000000006" as="targetPoint" />
            <mxPoint x="761" y="467" as="sourcePoint" />
            <Array as="points">
              <mxPoint x="912" y="467.00999999999965" />
            </Array>
          </mxGeometry>
        </mxCell>
        <mxCell id="EjdUyEd99-lyi4bKZ8Xp-7" value="[7:0]top_label" style="text;html=1;align=center;verticalAlign=middle;resizable=0;points=[];autosize=1;strokeColor=none;fillColor=none;" parent="1" vertex="1">
          <mxGeometry x="1030" y="660" width="100" height="30" as="geometry" />
        </mxCell>
        <mxCell id="EjdUyEd99-lyi4bKZ8Xp-8" value="" style="edgeStyle=orthogonalEdgeStyle;rounded=0;orthogonalLoop=1;jettySize=auto;html=1;strokeWidth=3;entryX=0.75;entryY=0;entryDx=0;entryDy=0;" parent="1" target="EjdUyEd99-lyi4bKZ8Xp-101" edge="1">
          <mxGeometry relative="1" as="geometry">
            <mxPoint x="1550" y="384.5" as="targetPoint" />
            <mxPoint x="1388" y="384.45000000000005" as="sourcePoint" />
            <Array as="points">
              <mxPoint x="2462" y="385" />
            </Array>
          </mxGeometry>
        </mxCell>
        <mxCell id="EjdUyEd99-lyi4bKZ8Xp-9" value="new_label_valid" style="text;html=1;align=center;verticalAlign=middle;resizable=0;points=[];autosize=1;strokeColor=none;fillColor=none;" parent="1" vertex="1">
          <mxGeometry x="1411" y="350" width="110" height="30" as="geometry" />
        </mxCell>
        <mxCell id="EjdUyEd99-lyi4bKZ8Xp-10" value="" style="edgeStyle=orthogonalEdgeStyle;rounded=0;orthogonalLoop=1;jettySize=auto;html=1;strokeWidth=3;entryX=0.297;entryY=0.003;entryDx=0;entryDy=0;entryPerimeter=0;" parent="1" target="EjdUyEd99-lyi4bKZ8Xp-101" edge="1">
          <mxGeometry relative="1" as="geometry">
            <mxPoint x="1550" y="435.5" as="targetPoint" />
            <mxPoint x="1388" y="435.45000000000005" as="sourcePoint" />
            <Array as="points">
              <mxPoint x="2321" y="436" />
            </Array>
          </mxGeometry>
        </mxCell>
        <mxCell id="EjdUyEd99-lyi4bKZ8Xp-11" value="[7:0]new_label_value" style="text;html=1;align=center;verticalAlign=middle;resizable=0;points=[];autosize=1;strokeColor=none;fillColor=none;" parent="1" vertex="1">
          <mxGeometry x="1396" y="401" width="140" height="30" as="geometry" />
        </mxCell>
        <mxCell id="EjdUyEd99-lyi4bKZ8Xp-12" value="" style="edgeStyle=orthogonalEdgeStyle;rounded=0;orthogonalLoop=1;jettySize=auto;html=1;strokeWidth=3;" parent="1" edge="1">
          <mxGeometry relative="1" as="geometry">
            <mxPoint x="1755" y="486" as="targetPoint" />
            <mxPoint x="1385" y="485.45000000000005" as="sourcePoint" />
            <Array as="points">
              <mxPoint x="1434" y="485.4499999999996" />
            </Array>
          </mxGeometry>
        </mxCell>
        <mxCell id="EjdUyEd99-lyi4bKZ8Xp-13" value="merge_labels" style="text;html=1;align=center;verticalAlign=middle;resizable=0;points=[];autosize=1;strokeColor=none;fillColor=none;" parent="1" vertex="1">
          <mxGeometry x="1413" y="451" width="100" height="30" as="geometry" />
        </mxCell>
        <mxCell id="EjdUyEd99-lyi4bKZ8Xp-15" value="[7:0]merge_a" style="text;html=1;align=center;verticalAlign=middle;resizable=0;points=[];autosize=1;strokeColor=none;fillColor=none;" parent="1" vertex="1">
          <mxGeometry x="1416.5" y="490" width="90" height="30" as="geometry" />
        </mxCell>
        <mxCell id="EjdUyEd99-lyi4bKZ8Xp-17" value="[7:0]merge_b" style="text;html=1;align=center;verticalAlign=middle;resizable=0;points=[];autosize=1;strokeColor=none;fillColor=none;" parent="1" vertex="1">
          <mxGeometry x="1415.5" y="525" width="90" height="30" as="geometry" />
        </mxCell>
        <mxCell id="EjdUyEd99-lyi4bKZ8Xp-20" value="&lt;span style=&quot;font-size: 24px;&quot;&gt;Lable Merger&lt;/span&gt;" style="rounded=0;whiteSpace=wrap;html=1;" parent="1" vertex="1">
          <mxGeometry x="1755" y="456.52" width="310" height="240" as="geometry" />
        </mxCell>
        <mxCell id="EjdUyEd99-lyi4bKZ8Xp-22" value="merge_valid" style="text;html=1;align=center;verticalAlign=middle;resizable=0;points=[];autosize=1;strokeColor=none;fillColor=none;" parent="1" vertex="1">
          <mxGeometry x="1627" y="451" width="90" height="30" as="geometry" />
        </mxCell>
        <mxCell id="EjdUyEd99-lyi4bKZ8Xp-32" value="[7:0]resolved_label" style="text;html=1;align=center;verticalAlign=middle;resizable=0;points=[];autosize=1;strokeColor=none;fillColor=none;" parent="1" vertex="1">
          <mxGeometry x="2080" y="555" width="120" height="30" as="geometry" />
        </mxCell>
        <mxCell id="EjdUyEd99-lyi4bKZ8Xp-55" value="motion_detected" style="text;html=1;align=center;verticalAlign=middle;resizable=0;points=[];autosize=1;strokeColor=none;fillColor=none;" parent="1" vertex="1">
          <mxGeometry x="1614" y="609.88" width="110" height="30" as="geometry" />
        </mxCell>
        <mxCell id="EjdUyEd99-lyi4bKZ8Xp-56" value="" style="edgeStyle=orthogonalEdgeStyle;rounded=0;orthogonalLoop=1;jettySize=auto;html=1;strokeWidth=3;" parent="1" edge="1">
          <mxGeometry relative="1" as="geometry">
            <mxPoint x="1756" y="642.38" as="targetPoint" />
            <mxPoint x="1594" y="642.33" as="sourcePoint" />
            <Array as="points">
              <mxPoint x="1643" y="642.3299999999996" />
            </Array>
          </mxGeometry>
        </mxCell>
        <mxCell id="EjdUyEd99-lyi4bKZ8Xp-57" value="[7:0]resolve_label" style="text;html=1;align=center;verticalAlign=middle;resizable=0;points=[];autosize=1;strokeColor=none;fillColor=none;" parent="1" vertex="1">
          <mxGeometry x="1612" y="560" width="120" height="30" as="geometry" />
        </mxCell>
        <mxCell id="EjdUyEd99-lyi4bKZ8Xp-61" value="[7:0]current_label" style="text;html=1;align=center;verticalAlign=middle;resizable=0;points=[];autosize=1;strokeColor=none;fillColor=none;" parent="1" vertex="1">
          <mxGeometry x="1409" y="560" width="120" height="30" as="geometry" />
        </mxCell>
        <mxCell id="EjdUyEd99-lyi4bKZ8Xp-62" value="" style="edgeStyle=orthogonalEdgeStyle;rounded=0;orthogonalLoop=1;jettySize=auto;html=1;strokeWidth=3;" parent="1" edge="1">
          <mxGeometry relative="1" as="geometry">
            <mxPoint x="1755" y="520.55" as="targetPoint" />
            <mxPoint x="1385" y="520" as="sourcePoint" />
            <Array as="points">
              <mxPoint x="1434" y="519.9999999999995" />
            </Array>
          </mxGeometry>
        </mxCell>
        <mxCell id="EjdUyEd99-lyi4bKZ8Xp-63" value="" style="edgeStyle=orthogonalEdgeStyle;rounded=0;orthogonalLoop=1;jettySize=auto;html=1;strokeWidth=3;" parent="1" edge="1">
          <mxGeometry relative="1" as="geometry">
            <mxPoint x="1755" y="554.55" as="targetPoint" />
            <mxPoint x="1385" y="554" as="sourcePoint" />
            <Array as="points">
              <mxPoint x="1434" y="553.9999999999995" />
            </Array>
          </mxGeometry>
        </mxCell>
        <mxCell id="EjdUyEd99-lyi4bKZ8Xp-64" value="" style="edgeStyle=orthogonalEdgeStyle;rounded=0;orthogonalLoop=1;jettySize=auto;html=1;strokeWidth=3;" parent="1" edge="1">
          <mxGeometry relative="1" as="geometry">
            <mxPoint x="1755" y="590.55" as="targetPoint" />
            <mxPoint x="1385" y="590" as="sourcePoint" />
            <Array as="points">
              <mxPoint x="1434" y="589.9999999999995" />
            </Array>
          </mxGeometry>
        </mxCell>
        <mxCell id="EjdUyEd99-lyi4bKZ8Xp-100" value="" style="edgeStyle=orthogonalEdgeStyle;rounded=0;orthogonalLoop=1;jettySize=auto;html=1;strokeWidth=3;" parent="1" edge="1">
          <mxGeometry relative="1" as="geometry">
            <mxPoint x="2227" y="583.38" as="targetPoint" />
            <mxPoint x="2065" y="583.33" as="sourcePoint" />
            <Array as="points">
              <mxPoint x="2114" y="583.3299999999996" />
            </Array>
          </mxGeometry>
        </mxCell>
        <mxCell id="EjdUyEd99-lyi4bKZ8Xp-101" value="&lt;span style=&quot;font-size: 24px;&quot;&gt;Min-Max registers&lt;/span&gt;" style="rounded=0;whiteSpace=wrap;html=1;" parent="1" vertex="1">
          <mxGeometry x="2229" y="555" width="310" height="285" as="geometry" />
        </mxCell>
        <mxCell id="EjdUyEd99-lyi4bKZ8Xp-102" value="&lt;span style=&quot;font-size: 24px;&quot;&gt;Track&lt;/span&gt;&lt;div&gt;&lt;span style=&quot;font-size: 24px;&quot;&gt;X &amp;amp; Y&lt;/span&gt;&lt;/div&gt;" style="rounded=0;whiteSpace=wrap;html=1;" parent="1" vertex="1">
          <mxGeometry x="1060" y="696.52" width="165" height="85.12" as="geometry" />
        </mxCell>
        <mxCell id="EjdUyEd99-lyi4bKZ8Xp-104" value="" style="edgeStyle=orthogonalEdgeStyle;rounded=0;orthogonalLoop=1;jettySize=auto;html=1;strokeWidth=3;" parent="1" edge="1">
          <mxGeometry relative="1" as="geometry">
            <mxPoint x="2227" y="750.9999999999999" as="targetPoint" />
            <mxPoint x="1225" y="751.54" as="sourcePoint" />
            <Array as="points">
              <mxPoint x="1274" y="751.5399999999995" />
            </Array>
          </mxGeometry>
        </mxCell>
        <mxCell id="EjdUyEd99-lyi4bKZ8Xp-105" value="" style="endArrow=classic;html=1;rounded=0;exitX=0.425;exitY=0;exitDx=0;exitDy=0;exitPerimeter=0;strokeWidth=3;" parent="1" source="EjdUyEd99-lyi4bKZ8Xp-102" edge="1">
          <mxGeometry width="50" height="50" relative="1" as="geometry">
            <mxPoint x="1130" y="690" as="sourcePoint" />
            <mxPoint x="1130" y="640" as="targetPoint" />
          </mxGeometry>
        </mxCell>
        <mxCell id="EjdUyEd99-lyi4bKZ8Xp-106" value="" style="endArrow=classic;html=1;rounded=0;exitX=0.425;exitY=0;exitDx=0;exitDy=0;exitPerimeter=0;strokeWidth=3;" parent="1" edge="1">
          <mxGeometry width="50" height="50" relative="1" as="geometry">
            <mxPoint x="1180" y="697" as="sourcePoint" />
            <mxPoint x="1180" y="640" as="targetPoint" />
          </mxGeometry>
        </mxCell>
        <mxCell id="EjdUyEd99-lyi4bKZ8Xp-109" value="" style="edgeStyle=orthogonalEdgeStyle;rounded=0;orthogonalLoop=1;jettySize=auto;html=1;strokeWidth=3;" parent="1" edge="1">
          <mxGeometry relative="1" as="geometry">
            <mxPoint x="1061" y="768.0799999999999" as="targetPoint" />
            <mxPoint x="761" y="767.74" as="sourcePoint" />
            <Array as="points">
              <mxPoint x="948" y="768.0299999999995" />
            </Array>
          </mxGeometry>
        </mxCell>
        <mxCell id="EjdUyEd99-lyi4bKZ8Xp-110" value="" style="edgeStyle=orthogonalEdgeStyle;rounded=0;orthogonalLoop=1;jettySize=auto;html=1;strokeWidth=3;" parent="1" edge="1">
          <mxGeometry relative="1" as="geometry">
            <mxPoint x="1061" y="734.8499999999999" as="targetPoint" />
            <mxPoint x="761" y="734.74" as="sourcePoint" />
            <Array as="points">
              <mxPoint x="948" y="734.7999999999995" />
            </Array>
          </mxGeometry>
        </mxCell>
        <mxCell id="EjdUyEd99-lyi4bKZ8Xp-111" value="" style="swimlane;startSize=0;" parent="1" vertex="1">
          <mxGeometry x="980" y="236.75" width="2090" height="700" as="geometry" />
        </mxCell>
        <mxCell id="EjdUyEd99-lyi4bKZ8Xp-112" value="&lt;font style=&quot;font-size: 42px;&quot; face=&quot;Times New Roman&quot;&gt;&lt;span style=&quot;text-wrap-mode: wrap;&quot;&gt;Bounding Box&amp;nbsp;&lt;/span&gt;&lt;span style=&quot;text-wrap-mode: wrap; background-color: transparent; color: light-dark(rgb(0, 0, 0), rgb(255, 255, 255));&quot;&gt;Generator&lt;/span&gt;&lt;/font&gt;" style="text;html=1;align=center;verticalAlign=middle;resizable=0;points=[];autosize=1;strokeColor=none;fillColor=none;" parent="EjdUyEd99-lyi4bKZ8Xp-111" vertex="1">
          <mxGeometry x="-22.5" y="20" width="450" height="60" as="geometry" />
        </mxCell>
        <mxCell id="tvAnXlh0ygOG0x00jJtz-23" value="" style="edgeStyle=orthogonalEdgeStyle;rounded=0;orthogonalLoop=1;jettySize=auto;html=1;strokeWidth=3;" edge="1" parent="EjdUyEd99-lyi4bKZ8Xp-111">
          <mxGeometry relative="1" as="geometry">
            <mxPoint x="1876.5700000000002" y="610.25" as="targetPoint" />
            <mxPoint x="1876.5700000000002" y="750.25" as="sourcePoint" />
            <Array as="points">
              <mxPoint x="1876.5700000000002" y="700.2499999999995" />
            </Array>
          </mxGeometry>
        </mxCell>
        <mxCell id="tvAnXlh0ygOG0x00jJtz-1" value="" style="edgeStyle=orthogonalEdgeStyle;rounded=0;orthogonalLoop=1;jettySize=auto;html=1;strokeWidth=3;" edge="1" parent="1">
          <mxGeometry relative="1" as="geometry">
            <mxPoint x="1755" y="680.05" as="targetPoint" />
            <mxPoint x="1593" y="680" as="sourcePoint" />
            <Array as="points">
              <mxPoint x="1642" y="679.9999999999995" />
            </Array>
          </mxGeometry>
        </mxCell>
        <mxCell id="tvAnXlh0ygOG0x00jJtz-5" value="last_in_frame" style="text;html=1;align=center;verticalAlign=middle;resizable=0;points=[];autosize=1;strokeColor=none;fillColor=none;" vertex="1" parent="1">
          <mxGeometry x="1624" y="655" width="100" height="30" as="geometry" />
        </mxCell>
        <mxCell id="tvAnXlh0ygOG0x00jJtz-6" value="" style="edgeStyle=orthogonalEdgeStyle;rounded=0;orthogonalLoop=1;jettySize=auto;html=1;strokeWidth=3;" edge="1" parent="1">
          <mxGeometry relative="1" as="geometry">
            <mxPoint x="1025" y="580.0600000000001" as="targetPoint" />
            <mxPoint x="761" y="580" as="sourcePoint" />
            <Array as="points">
              <mxPoint x="912" y="580.0099999999996" />
            </Array>
          </mxGeometry>
        </mxCell>
        <mxCell id="tvAnXlh0ygOG0x00jJtz-7" value="last_in_frame" style="text;html=1;align=center;verticalAlign=middle;resizable=0;points=[];autosize=1;strokeColor=none;fillColor=none;" vertex="1" parent="1">
          <mxGeometry x="756" y="555" width="100" height="30" as="geometry" />
        </mxCell>
        <mxCell id="tvAnXlh0ygOG0x00jJtz-8" value="" style="edgeStyle=orthogonalEdgeStyle;rounded=0;orthogonalLoop=1;jettySize=auto;html=1;strokeWidth=3;" edge="1" parent="1">
          <mxGeometry relative="1" as="geometry">
            <mxPoint x="1060" y="704.99" as="targetPoint" />
            <mxPoint x="920" y="705" as="sourcePoint" />
            <Array as="points">
              <mxPoint x="947" y="704.9399999999996" />
            </Array>
          </mxGeometry>
        </mxCell>
        <mxCell id="tvAnXlh0ygOG0x00jJtz-9" value="" style="endArrow=none;html=1;rounded=0;strokeWidth=3;" edge="1" parent="1">
          <mxGeometry width="50" height="50" relative="1" as="geometry">
            <mxPoint x="921" y="706" as="sourcePoint" />
            <mxPoint x="920" y="580" as="targetPoint" />
          </mxGeometry>
        </mxCell>
        <mxCell id="tvAnXlh0ygOG0x00jJtz-10" value="" style="edgeStyle=orthogonalEdgeStyle;rounded=0;orthogonalLoop=1;jettySize=auto;html=1;strokeWidth=3;" edge="1" parent="1">
          <mxGeometry relative="1" as="geometry">
            <mxPoint x="2227" y="795.05" as="targetPoint" />
            <mxPoint x="2065" y="795" as="sourcePoint" />
            <Array as="points">
              <mxPoint x="2114" y="794.9999999999995" />
            </Array>
          </mxGeometry>
        </mxCell>
        <mxCell id="tvAnXlh0ygOG0x00jJtz-11" value="last_in_frame" style="text;html=1;align=center;verticalAlign=middle;resizable=0;points=[];autosize=1;strokeColor=none;fillColor=none;" vertex="1" parent="1">
          <mxGeometry x="2096" y="770" width="100" height="30" as="geometry" />
        </mxCell>
        <mxCell id="tvAnXlh0ygOG0x00jJtz-12" value="[10:0] x" style="text;html=1;align=center;verticalAlign=middle;resizable=0;points=[];autosize=1;strokeColor=none;fillColor=none;" vertex="1" parent="1">
          <mxGeometry x="1240" y="694.52" width="60" height="30" as="geometry" />
        </mxCell>
        <mxCell id="tvAnXlh0ygOG0x00jJtz-13" value="[9:0] y" style="text;html=1;align=center;verticalAlign=middle;resizable=0;points=[];autosize=1;strokeColor=none;fillColor=none;" vertex="1" parent="1">
          <mxGeometry x="1240" y="724.52" width="60" height="30" as="geometry" />
        </mxCell>
        <mxCell id="tvAnXlh0ygOG0x00jJtz-14" value="&lt;span style=&quot;font-size: 24px;&quot;&gt;Highlight&lt;/span&gt;&lt;div&gt;&lt;span style=&quot;font-size: 24px;&quot;&gt;Motion&lt;/span&gt;&lt;/div&gt;" style="rounded=0;whiteSpace=wrap;html=1;" vertex="1" parent="1">
          <mxGeometry x="2702" y="562" width="310" height="285" as="geometry" />
        </mxCell>
        <mxCell id="tvAnXlh0ygOG0x00jJtz-15" value="" style="edgeStyle=orthogonalEdgeStyle;rounded=0;orthogonalLoop=1;jettySize=auto;html=1;strokeWidth=3;" edge="1" parent="1">
          <mxGeometry relative="1" as="geometry">
            <mxPoint x="2702" y="815.05" as="targetPoint" />
            <mxPoint x="2580" y="815" as="sourcePoint" />
            <Array as="points">
              <mxPoint x="2589" y="814.9999999999995" />
            </Array>
          </mxGeometry>
        </mxCell>
        <mxCell id="tvAnXlh0ygOG0x00jJtz-16" value="last_in_frame" style="text;html=1;align=center;verticalAlign=middle;resizable=0;points=[];autosize=1;strokeColor=none;fillColor=none;" vertex="1" parent="1">
          <mxGeometry x="2571" y="790" width="100" height="30" as="geometry" />
        </mxCell>
        <mxCell id="tvAnXlh0ygOG0x00jJtz-17" value="[31:0] rbg_pixel" style="text;html=1;align=center;verticalAlign=middle;resizable=0;points=[];autosize=1;strokeColor=none;fillColor=none;" vertex="1" parent="1">
          <mxGeometry x="2752" y="950" width="110" height="30" as="geometry" />
        </mxCell>
        <mxCell id="tvAnXlh0ygOG0x00jJtz-19" value="" style="edgeStyle=orthogonalEdgeStyle;rounded=0;orthogonalLoop=1;jettySize=auto;html=1;strokeWidth=3;entryX=1.001;entryY=1.089;entryDx=0;entryDy=0;entryPerimeter=0;" edge="1" parent="1" target="tvAnXlh0ygOG0x00jJtz-20">
          <mxGeometry relative="1" as="geometry">
            <mxPoint x="3174" y="671.8" as="targetPoint" />
            <mxPoint x="3012" y="671.75" as="sourcePoint" />
            <Array as="points">
              <mxPoint x="3061" y="672" />
            </Array>
          </mxGeometry>
        </mxCell>
        <mxCell id="tvAnXlh0ygOG0x00jJtz-20" value="[31:0] highlighted_motion" style="text;html=1;align=center;verticalAlign=middle;resizable=0;points=[];autosize=1;strokeColor=none;fillColor=none;" vertex="1" parent="1">
          <mxGeometry x="3090" y="640" width="160" height="30" as="geometry" />
        </mxCell>
        <mxCell id="tvAnXlh0ygOG0x00jJtz-21" value="" style="edgeStyle=orthogonalEdgeStyle;rounded=0;orthogonalLoop=1;jettySize=auto;html=1;strokeWidth=3;" edge="1" parent="1">
          <mxGeometry relative="1" as="geometry">
            <mxPoint x="3240" y="742" as="targetPoint" />
            <mxPoint x="3012" y="741.63" as="sourcePoint" />
            <Array as="points">
              <mxPoint x="3061" y="741.6299999999995" />
            </Array>
          </mxGeometry>
        </mxCell>
        <mxCell id="tvAnXlh0ygOG0x00jJtz-22" value="pixel_valid" style="text;html=1;align=center;verticalAlign=middle;resizable=0;points=[];autosize=1;strokeColor=none;fillColor=none;" vertex="1" parent="1">
          <mxGeometry x="3150" y="716.63" width="80" height="30" as="geometry" />
        </mxCell>
      </root>
    </mxGraphModel>
  </diagram>
</mxfile>
